<?xml version="1.0" encoding="utf-8"?>
<!-- Generator: Adobe Illustrator 22.0.1, SVG Export Plug-In . SVG Version: 6.00 Build 0)  -->
<svg version="1.1" id="Capa_1" xmlns="http://www.w3.org/2000/svg" xmlns:xlink="http://www.w3.org/1999/xlink" x="0px" y="0px"
	 viewBox="0 0 1170 224" style="enable-background:new 0 0 1170 224;" xml:space="preserve">
<style type="text/css">
	.st0{fill:#FFFFFF;}
</style>
<g>
	<g>
		<g>
			<g>
				<path class="st0" d="M50.9,144.5V93.1c0-3.9-1.7-5.9-5.9-5.9c-4.5,0-12.6,2.7-19.2,6.2v51.1H7.3V40.7l18.4-2.6v38.3
					c8.2-4.2,19.1-7.1,26.9-7.1c12.3,0,16.7,8.6,16.7,21.8v53.4H50.9z"/>
				<path class="st0" d="M119.5,146c-23.2,0-30.9-11-30.9-24.4v-30c0-13.3,7.7-23.9,30.9-23.9c23.2,0,30.9,10.6,30.9,23.9v30.5
					C150.4,135.4,142.7,146,119.5,146z M119.5,83.2c-9.6,0-13.2,3-13.2,10.8v25.8c0,7.7,3.6,10.7,13.2,10.7c9.6,0,13.2-3,13.2-10.7
					V94C132.7,86.3,129.1,83.2,119.5,83.2z M168.6,80.2l-7.4-13.9l26.7-15.4h15.9v93.7h-17.7V70.5L168.6,80.2z"/>
				<path class="st0" d="M280.5,144.5h-15.1l-1.4-5c-6.7,4.4-14.5,6.5-21.9,6.5c-13.5,0-19.2-9.2-19.2-21.9c0-15,6.5-20.7,21.5-20.7
					H262v-7.7c0-8.2-2.3-11.1-14-11.1c-6.7,0-13.9,0.9-20.4,2.3l-2.3-14.1c7-2.1,17.1-3.5,25.3-3.5c23.2,0,30,8.2,30,26.6V144.5z
					 M262,116.7h-13.6c-6,0-7.7,1.6-7.7,7.2c0,5.1,1.7,7.4,7.4,7.4c5.5,0,10.4-1.8,13.9-3.8V116.7z"/>
				<g>
					<path class="st0" d="M294.9,137.2v-1c0-1.3-0.8-2-2.3-2h-3v7.6h1.4v-2.6h1.4l1.8,2.6h1.6l-1.9-2.8
						C294.6,138.7,294.9,138.1,294.9,137.2z M293.5,136.2v1c0,0.5-0.1,0.7-1,0.7H291v-2.5h1.5C293.4,135.4,293.5,135.7,293.5,136.2z
						"/>
					<path class="st0" d="M292.6,131.4c-3.6,0-6.6,2.9-6.6,6.6c0,3.6,2.9,6.6,6.6,6.6s6.6-2.9,6.6-6.6
						C299.2,134.3,296.3,131.4,292.6,131.4z M298,138c0,2.9-2.4,5.3-5.3,5.3s-5.3-2.4-5.3-5.3s2.4-5.3,5.3-5.3S298,135,298,138z"/>
				</g>
			</g>
		</g>
	</g>
	<g>
		<g>
			<path class="st0" d="M598.1,102.4v-3.6l-20.5,47.8h-9.4l-20.4-47.8v3.2l-1.4,44.6h-13.6l2.7-71h15.7l20.1,46.9
				c0.7,1.8,1.2,3.5,1.5,4.7c0.3-1.2,0.9-2.9,1.7-4.7l20-46.9h15.7l2.7,71h-13.6L598.1,102.4z"/>
			<path class="st0" d="M673.1,139.1c-7.9,6.2-15,8.6-24.8,8.6c-15.7,0-26.9-8.8-26.9-28.3c0-20,11.2-29.1,27.2-29.1
				c15.5-0.1,24.8,9.3,25,26.6c0,1.9,0,3.4-0.3,5.8h-39.3c1.1,10.3,6.7,14.5,14.9,14.5c7.5,0,12.9-1.7,19.9-6.2L673.1,139.1z
				 M662.1,113.6c-0.7-8.8-5.5-13.4-13.5-13.4c-7.6,0-13.1,3.9-14.5,13.4H662.1z"/>
			<path class="st0" d="M715.5,144.3c-4.7,1.9-9.5,2.9-14,2.9c-12.2,0-17.2-5.6-17.2-19.3v-25.6h-8.1V91.3h8.1V78h13.3v13.3h15.4
				v11.1h-15.4v25c0,6.6,2.3,8.5,8.6,8.5c2.3,0,4.2,0,7.9-0.5L715.5,144.3z"/>
			<path class="st0" d="M969.6,101.9c3.3-7,8.9-11.5,15.9-11.5c2,0,3.8,0,7,0.3l-0.9,13.2c-2.8-0.2-4.6-0.2-6.6-0.2
				c-7.2,0-12.7,4.1-15.4,12.6v30.5h-13.2V91.3h13.2V101.9z"/>
			<path class="st0" d="M737,101.9c3.3-7,8.9-11.5,15.9-11.5c2,0,3.8,0,7,0.3l-0.9,13.2c-2.8-0.2-4.6-0.2-6.6-0.2
				c-7.2,0-12.7,4.1-15.4,12.6v30.5h-13.2V91.3H737V101.9z"/>
			<path class="st0" d="M820.2,119.3c0,17.3-10.9,28.4-28.2,28.4c-17.2,0-28.1-11.1-28.1-28.4c0-17.8,11-29.1,28.1-29
				C809.3,90.2,820.2,101.5,820.2,119.3z M807.3,119.3c0-11.6-5.9-18.2-15.2-18.2c-9.2,0-15.1,6.5-15.1,18.2
				c0,11.2,5.8,17.4,15.1,17.4C801.4,136.8,807.3,130.5,807.3,119.3z"/>
			<path class="st0" d="M892.1,139.2c-8.7,5.7-18.1,8.5-29.6,8.5c-21.2,0-34-13.1-34-36.4c0-23.6,12.8-36.8,35.1-36.8
				c8.7,0,18.4,2.2,25.7,6.2l-4.2,10.2c-7.4-2.8-14.6-4.1-21-4.1c-14.4,0-22,8.4-22,24.4c0,15,7.9,24.1,20.9,24.1
				c9.1,0,15.9-2,24.1-6.3L892.1,139.2z"/>
			<path class="st0" d="M901.7,94.1c11.4-2.9,17.1-3.8,23-3.8c15.7,0,21.2,6.9,21.2,23v33.4h-13v-6.7c-4.8,4.2-10.3,7.8-18.1,7.8
				c-12.2,0-18.5-4.6-18.5-17c0-11.7,7.5-17.5,23.2-17.5c5.5,0,8.8-0.1,13.5,0c0-9.2-2.1-12-10.5-12c-4.5,0-10.6,0.8-18.6,2.7
				L901.7,94.1z M921,121.5c-8.5,0-12.7,1.4-12.7,7.7c0,5.8,3.6,8.8,10.5,8.8c5.5,0,10.4-3.1,14.1-7.2v-9.3H921z"/>
			<path class="st0" d="M1011.4,101.9c3.3-7,8.9-11.5,15.9-11.5c2,0,3.8,0,7,0.3l-0.9,13.2c-2.8-0.2-4.6-0.2-6.6-0.2
				c-7.2,0-12.7,4.1-15.4,12.6v30.5h-13.2V91.3h13.2V101.9z"/>
			<path class="st0" d="M1048,73.5c4.1,0,7.7,2.4,7.7,7.1c0,4.7-3.6,7-7.7,7c-4.1,0-7.7-2.3-7.7-7C1040.3,76,1043.9,73.5,1048,73.5z
				 M1041.5,146.6V91.3h13.2v55.3H1041.5z"/>
			<path class="st0" d="M1115.1,139.1c-7.9,6.2-15,8.6-24.8,8.6c-15.7,0-26.9-8.8-26.9-28.3c0-20,11.2-29.1,27.2-29.1
				c15.5-0.1,24.8,9.3,25,26.6c0,1.9,0,3.4-0.4,5.8H1076c1.1,10.3,6.7,14.5,14.9,14.5c7.4,0,12.9-1.7,19.9-6.2L1115.1,139.1z
				 M1104.2,113.6c-0.7-8.8-5.5-13.4-13.5-13.4c-7.6,0-13.1,3.9-14.5,13.4H1104.2z"/>
			<path class="st0" d="M1138.1,101.9c3.3-7,9-11.5,15.9-11.5c2,0,3.9,0,7,0.3l-0.9,13.2c-2.8-0.2-4.7-0.2-6.6-0.2
				c-7.2,0-12.7,4.1-15.4,12.6v30.5H1125V91.3h13.1V101.9z"/>
			<g>
				<path class="st0" d="M1148.2,139.4c0-4,3.2-7.2,7.2-7.2c4,0,7.2,3.2,7.2,7.2c0,4-3.2,7.2-7.2,7.2
					C1151.4,146.6,1148.2,143.4,1148.2,139.4z M1162,139.4c0-3.6-2.9-6.5-6.5-6.5c-3.6,0-6.5,2.9-6.5,6.5c0,3.6,2.9,6.5,6.5,6.5
					C1159,145.9,1162,143,1162,139.4z M1155.5,135.3c2.4,0,3.5,1,3.5,2.7c0,1.2-0.6,2-1.7,2.2c1,0.5,1.5,1.8,2,3.2h-2
					c-0.6-1.5-1-2.6-1.7-2.6h-1.6v2.6h-1.7v-8.1H1155.5z M1155.8,139.5c1,0,1.4-0.5,1.4-1.4c0-0.9-0.6-1.4-1.7-1.4h-1.5v2.8H1155.8z
					"/>
			</g>
		</g>
		<g>
			<g>
				<circle class="st0" cx="451" cy="29.5" r="9.5"/>
				<g>
					<path class="st0" d="M485.5,174.7c-0.8,0-1.6-0.1-2.4-0.2c0,4.9-0.3,7.6-0.3,7.6s-0.4,13-12.5,20.5
						c-11.1,6.8-23.5,1.3-23.5,1.3s-46.1-11.7-81.7-69c-6-9.7-10.7-19-14.4-27.8c0,0-5.1,5.3-9,13.4c4,10.1,9,20.5,15.6,31.3
						c29.1,47.4,73.4,64.2,73.4,64.2s20.7,9.5,38.1-0.4c15.4-8.8,20.8-24.7,21.5-41.7C488.7,174.4,487.2,174.7,485.5,174.7z"/>
					<path class="st0" d="M476.6,102.6c-6.7-17.2-13.5-28.1-13.5-28.1c-29.2-47.7-71.6-66-71.6-66s-20-10.9-40.3,1.3
						c-18.4,11.1-19.7,29.5-19.7,29.5s-4.9,22,2,54.1c0,0,4.5-7.4,8.9-11.1c-6.1-24.7-4.2-40.7-4.2-40.7s-0.3-12.6,11.6-19.8
						c10.6-6.4,23.6-2.2,23.6-2.2s46.8,11.6,83.6,71c5.1,8.2,12.5,23.7,12.5,23.7C475.6,106.6,476.6,102.6,476.6,102.6z"/>
					<path class="st0" d="M486.3,135.2c-0.2-1-0.4-1.9-0.6-2.8c0,0-2.2,4.2-6.9,9.1c0,0,1.5,6.3,2,9.2c1.5-0.6,3.1-0.9,4.8-0.9
						c1.2,0,2.3,0.2,3.3,0.5C488.1,145,487.2,139.9,486.3,135.2z"/>
				</g>
				<circle class="st0" cx="485.5" cy="162.2" r="9.5"/>
				<g>
					<path class="st0" d="M438.5,29.5c0-0.3,0-0.6,0-0.9c-2.9,0.8-5.7,1.6-8.5,2.5c0,0,3.8,3.3,6.8,6.4c0,0,2.5-0.8,3.7-1.2
						C439.3,34.4,438.5,32.1,438.5,29.5z"/>
					<path class="st0" d="M381.5,186.4c-19.4,6.7-32.2,6.9-32.2,6.9s-13.1,1.3-21.8-9.5c-8.4-10.5-4.8-22.4-4.8-22.4
						s5.2-47.9,59-92.4c11.5-9.5,22.9-16.6,33.2-22c-4.9-4.8-8.6-6.8-8.6-6.8c-25,11.3-41.4,25-41.4,25
						c-43.3,35.5-55.3,80.2-55.3,80.2s-8.4,20.9,6.4,39.5c12.9,16.1,32,16,32,16s17.5,1.2,42.5-6.1
						C383.7,189,381.5,186.4,381.5,186.4z"/>
					<path class="st0" d="M503.8,40.4c-10.2-13.3-25.4-16.8-41.4-15.9c0.7,1.6,1.1,3.3,1.1,5.1c0,0.6,0,1.2-0.1,1.8
						c3.5-0.4,5.4-0.4,5.4-0.4s13-1.4,22,9.6c8.2,10,4.4,23.1,4.4,23.1S489.9,111,438,154c-11.5,9.5-22.7,16.8-33.1,22.2
						c0,0,5,4.9,11,8.6c12.7-6,26.2-14.2,39.9-25.4c43-35.3,53.6-81.5,53.6-81.5S516,56.2,503.8,40.4z"/>
				</g>
			</g>
		</g>
	</g>
</g>
</svg>
