<svg id="LOGO_small_white" xmlns="http://www.w3.org/2000/svg" width="98.62" height="30" viewBox="0 0 98.62 30">
  <g id="Grupo_1816" data-name="Grupo 1816" transform="translate(-1185.38 -56)">
    <g id="Grupo_1815" data-name="Grupo 1815" transform="translate(0 -14)">
      <g id="Grupo_114" data-name="Grupo 114" transform="translate(275.312 728)">
        <g id="Grupo_112" data-name="Grupo 112" transform="translate(910.069 -658)">
          <g id="Grupo_111" data-name="Grupo 111" transform="translate(0 0)">
            <g id="Grupo_110" data-name="Grupo 110">
              <path id="Trazado_4" data-name="Trazado 4" d="M596.666,122.114H586.041l0,0h-.718a.97.97,0,0,0-.982.958v16.8a.974.974,0,0,0,.982.961h3.052a.974.974,0,0,0,.982-.961v-5.271h3.656l2.79,5.378a1.768,1.768,0,0,0,1.426.854h3.864c.542,0,.759-.374.484-.826l-3.39-5.6a4.527,4.527,0,0,0,2.6-1.671,5.011,5.011,0,0,0,.954-3.1v-2.578a4.8,4.8,0,0,0-1.391-3.6,5.044,5.044,0,0,0-3.686-1.359m.064,7.285a.847.847,0,0,1-.97.946h-6.4v-3.967h6.4a.848.848,0,0,1,.97.949Zm-34.391-7.285h-3.048a.974.974,0,0,0-.983.961v12.553a.85.85,0,0,1-.972.949h-6.079a.85.85,0,0,1-.972-.949V123.075a.975.975,0,0,0-.982-.961h-3.05a.974.974,0,0,0-.982.961v12.807a4.8,4.8,0,0,0,1.391,3.6,5.008,5.008,0,0,0,3.657,1.359h7.925a5.05,5.05,0,0,0,3.686-1.359,4.805,4.805,0,0,0,1.391-3.6V123.075a.974.974,0,0,0-.983-.961m15.226,0H566.944l0,0h-.716a.969.969,0,0,0-.982.958v16.8a.974.974,0,0,0,.982.961h3.05a.973.973,0,0,0,.982-.961v-5.271h3.655l2.792,5.378a1.769,1.769,0,0,0,1.427.854h3.864c.541,0,.757-.374.482-.826l-3.387-5.6a4.521,4.521,0,0,0,2.6-1.671,4.992,4.992,0,0,0,.955-3.1v-2.578a4.805,4.805,0,0,0-1.391-3.6,5.051,5.051,0,0,0-3.689-1.359m.065,7.285a.847.847,0,0,1-.97.946h-6.4v-3.967h6.4a.848.848,0,0,1,.97.949Zm64.527,8.057a1.693,1.693,0,1,0,1.734,1.692,1.713,1.713,0,0,0-1.734-1.692m0,2.966a1.274,1.274,0,1,1,1.3-1.274,1.288,1.288,0,0,1-1.3,1.274m-23.708-3.845-9.909.006v-3.3l6.921-.006a.973.973,0,0,0,.981-.958l-.02-1.69a.974.974,0,0,0-.982-.958l-6.9.01v-3.306l9.819.006a.975.975,0,0,0,.983-.958v-2.345a.976.976,0,0,0-.983-.961H604.537a.973.973,0,0,0-.982.961v16.8a.973.973,0,0,0,.982.961H618.45a.972.972,0,0,0,.98-.961v-2.345a.971.971,0,0,0-.98-.958m24.212,2.813.02-.019a.622.622,0,0,0,.265-.514v-.015a.655.655,0,0,0-.662-.649h-.771a.091.091,0,0,0-.092.088v1.76h.335a.091.091,0,0,0,.092-.088v-.447h.388l.318.536h.425a.047.047,0,0,0,.034-.012.065.065,0,0,0-.011-.061Zm-.14-.533a.232.232,0,0,1-.237.23h-.436v-.477h.436a.235.235,0,0,1,.237.233Zm-8.376-16.743h-7.925a5.005,5.005,0,0,0-3.656,1.359,4.806,4.806,0,0,0-1.391,3.6V139.88a.974.974,0,0,0,.981.961h3.051a.975.975,0,0,0,.983-.961V134.6h8.023v5.28a.974.974,0,0,0,.98.961h3.05a.973.973,0,0,0,.981-.961V127.072a4.8,4.8,0,0,0-1.39-3.6,5.045,5.045,0,0,0-3.688-1.359m.066,8.145h-8.023v-2.932a.848.848,0,0,1,.97-.949h6.081a.849.849,0,0,1,.972.949v2.932" transform="translate(-545.272 -122.114)" fill="#19456E"/>
              <path id="Trazado_5" data-name="Trazado 5" d="M545.272,164.982h4.193v.294h-1.928v4.861h-.34v-4.861h-1.925Z" transform="translate(-545.272 -141.609)" fill="#19456E"/>
              <path id="Trazado_6" data-name="Trazado 6" d="M557.038,170.118v.11a1.008,1.008,0,0,1-1.074,1.068h-.845a1.013,1.013,0,0,1-1.073-1.068v-1.693a1.037,1.037,0,0,1,.3-.777,1.056,1.056,0,0,1,.777-.294h.845a1.058,1.058,0,0,1,.782.294,1.047,1.047,0,0,1,.292.777v.919h-2.666v.78a.732.732,0,0,0,.785.781h.776a.768.768,0,0,0,.568-.211.777.777,0,0,0,.21-.57v-.116Zm-2.666-.928h2.339v-.664a.727.727,0,0,0-.778-.781h-.776a.779.779,0,0,0-.571.212.76.76,0,0,0-.214.569Z" transform="translate(-549.37 -142.768)" fill="#19456E"/>
              <path id="Trazado_7" data-name="Trazado 7" d="M564.462,170.084v.147a1.013,1.013,0,0,1-1.076,1.068h-.842a1.022,1.022,0,0,1-1.076-1.068v-1.7a1.029,1.029,0,0,1,.3-.775,1.063,1.063,0,0,1,.777-.29h.842a1.067,1.067,0,0,1,.783.29,1.035,1.035,0,0,1,.293.775v.15h-.326v-.156a.729.729,0,0,0-.777-.781h-.779a.781.781,0,0,0-.571.212.76.76,0,0,0-.214.569v1.708a.737.737,0,0,0,.785.781h.779a.754.754,0,0,0,.566-.214.765.765,0,0,0,.212-.566v-.153Z" transform="translate(-552.837 -142.771)" fill="#19456E"/>
              <path id="Trazado_8" data-name="Trazado 8" d="M571.561,171.3v-2.77a.728.728,0,0,0-.779-.781h-.776a.778.778,0,0,0-.571.212.76.76,0,0,0-.214.569v2.77H568.9v-3.833h.26l.028.386a.954.954,0,0,1,.355-.285,1.219,1.219,0,0,1,.5-.1h.778a1.056,1.056,0,0,1,.782.294,1.042,1.042,0,0,1,.293.777V171.3Z" transform="translate(-556.307 -142.768)" fill="#19456E"/>
              <path id="Trazado_9" data-name="Trazado 9" d="M579.448,170.228a1.006,1.006,0,0,1-1.073,1.068h-.845a1.057,1.057,0,0,1-.779-.294,1.045,1.045,0,0,1-.3-.774v-1.693a1.039,1.039,0,0,1,.3-.777,1.059,1.059,0,0,1,.779-.294h.845a1.063,1.063,0,0,1,.782.294,1.049,1.049,0,0,1,.291.777Zm-.326-1.7a.728.728,0,0,0-.778-.781h-.779a.777.777,0,0,0-.569.212.755.755,0,0,0-.216.569v1.708a.735.735,0,0,0,.785.781h.779a.764.764,0,0,0,.567-.211.78.78,0,0,0,.211-.57Z" transform="translate(-559.53 -142.768)" fill="#19456E"/>
              <rect id="Rect치ngulo_16" data-name="Rect치ngulo 16" width="0.324" height="5.452" transform="translate(21.022 23.076)" fill="#19456E"/>
              <path id="Trazado_10" data-name="Trazado 10" d="M589.57,170.228A1.008,1.008,0,0,1,588.5,171.3h-.845a1.057,1.057,0,0,1-.779-.294,1.044,1.044,0,0,1-.3-.774v-1.693a1.037,1.037,0,0,1,.3-.777,1.059,1.059,0,0,1,.779-.294h.845a1.007,1.007,0,0,1,1.073,1.071Zm-.326-1.7a.729.729,0,0,0-.777-.781h-.778a.781.781,0,0,0-.571.212.76.76,0,0,0-.214.569v1.708a.732.732,0,0,0,.785.781h.778a.764.764,0,0,0,.566-.211.78.78,0,0,0,.212-.57Z" transform="translate(-564.159 -142.768)" fill="#19456E"/>
              <path id="Trazado_11" data-name="Trazado 11" d="M597,171.7a1.049,1.049,0,0,1-.294.777,1.067,1.067,0,0,1-.782.29h-.843a1.061,1.061,0,0,1-.782-.29A1.043,1.043,0,0,1,594,171.7v-.11h.326v.119a.737.737,0,0,0,.785.781h.777a.737.737,0,0,0,.779-.781v-.747a1.032,1.032,0,0,1-.816.334h-.778A1.013,1.013,0,0,1,594,170.231v-1.693a1,1,0,0,1,1.074-1.068h.778a1.141,1.141,0,0,1,.49.1.97.97,0,0,1,.355.279l.037-.376H597Zm-2.667-1.466a.728.728,0,0,0,.785.781h.777a.731.731,0,0,0,.779-.744v-1.745a.758.758,0,0,0-.212-.569.771.771,0,0,0-.568-.212h-.777a.773.773,0,0,0-.574.212.759.759,0,0,0-.211.569Z" transform="translate(-567.554 -142.771)" fill="#19456E"/>
              <path id="Trazado_12" data-name="Trazado 12" d="M601.665,169.877h.326v-3.829h-.326Zm.777-5.452-.824,1.179h.276l.887-1.179Z" transform="translate(-571.047 -141.349)" fill="#19456E"/>
              <path id="Trazado_13" data-name="Trazado 13" d="M606.76,171.3l-.037-.325a.929.929,0,0,1-.763.325h-.95a.972.972,0,0,1-.713-.27.953.953,0,0,1-.271-.71v-.141a.953.953,0,0,1,.271-.71.97.97,0,0,1,.713-.27h.95a.956.956,0,0,1,.732.288V168.44a.65.65,0,0,0-.694-.692h-.824a.653.653,0,0,0-.7.692v.208h-.326v-.2a.927.927,0,0,1,.985-.979h.9a.964.964,0,0,1,.715.269.95.95,0,0,1,.271.71v2.85Zm-.762-.282a.684.684,0,0,0,.5-.177.675.675,0,0,0,.2-.484v-.236a.649.649,0,0,0-.694-.664h-.957a.691.691,0,0,0-.508.19.676.676,0,0,0-.188.5v.175a.683.683,0,0,0,.188.505.691.691,0,0,0,.508.187Z" transform="translate(-572.137 -142.771)" fill="#19456E"/>
              <path id="Trazado_14" data-name="Trazado 14" d="M615.9,167.464h.261l.027.386a.963.963,0,0,1,.356-.285,1.157,1.157,0,0,1,.5-.1h.779a1.007,1.007,0,0,1,1.073,1.071v1.693a1.008,1.008,0,0,1-1.073,1.068h-.779a1.2,1.2,0,0,1-.467-.089.91.91,0,0,1-.347-.251v1.812H615.9Zm2.668,1.062a.73.73,0,0,0-.779-.781h-.777a.782.782,0,0,0-.563.2.765.765,0,0,0-.222.545v1.745a.732.732,0,0,0,.785.781h.777a.762.762,0,0,0,.567-.211.781.781,0,0,0,.213-.57Z" transform="translate(-577.565 -142.768)" fill="#19456E"/>
              <path id="Trazado_15" data-name="Trazado 15" d="M625.82,171.3l-.037-.325a.933.933,0,0,1-.764.325h-.949a.979.979,0,0,1-.715-.27.96.96,0,0,1-.271-.71v-.141a.96.96,0,0,1,.271-.71.977.977,0,0,1,.715-.27h.949a.962.962,0,0,1,.733.288V168.44a.653.653,0,0,0-.695-.692h-.823a.678.678,0,0,0-.508.19.67.67,0,0,0-.189.5v.208h-.326v-.2a.955.955,0,0,1,.269-.71.966.966,0,0,1,.715-.269h.9a.969.969,0,0,1,.716.269.954.954,0,0,1,.269.71v2.85Zm-.763-.282a.646.646,0,0,0,.695-.661v-.236a.7.7,0,0,0-.2-.484.689.689,0,0,0-.5-.18H624.1a.691.691,0,0,0-.508.19.671.671,0,0,0-.19.5v.175a.677.677,0,0,0,.19.505.691.691,0,0,0,.508.187Z" transform="translate(-580.851 -142.771)" fill="#19456E"/>
              <path id="Trazado_16" data-name="Trazado 16" d="M632.68,167.745H631.9a.791.791,0,0,0-.565.2.765.765,0,0,0-.22.545V171.3h-.326v-3.833h.258l.029.386a.959.959,0,0,1,.356-.285,1.152,1.152,0,0,1,.5-.1h.748Z" transform="translate(-584.384 -142.768)" fill="#19456E"/>
              <path id="Trazado_17" data-name="Trazado 17" d="M637.735,171.3l-.037-.325a.926.926,0,0,1-.762.325h-.949a.979.979,0,0,1-.715-.27.953.953,0,0,1-.271-.71v-.141a.953.953,0,0,1,.271-.71.976.976,0,0,1,.715-.27h.949a.964.964,0,0,1,.733.288V168.44a.653.653,0,0,0-.7-.692h-.822a.653.653,0,0,0-.7.692v.208h-.325v-.2a.95.95,0,0,1,.269-.71.964.964,0,0,1,.715-.269h.9a.966.966,0,0,1,.715.269.956.956,0,0,1,.271.71v2.85Zm-.762-.282a.648.648,0,0,0,.7-.661v-.236a.694.694,0,0,0-.2-.484.685.685,0,0,0-.5-.18h-.955a.685.685,0,0,0-.508.19.676.676,0,0,0-.19.5v.175a.648.648,0,0,0,.7.692Z" transform="translate(-586.3 -142.771)" fill="#19456E"/>
              <path id="Trazado_18" data-name="Trazado 18" d="M647.814,171.3l-1.562-3.832h.347l1.416,3.477,1.412-3.477h.326L648.2,171.3Z" transform="translate(-591.438 -142.768)" fill="#19456E"/>
              <path id="Trazado_19" data-name="Trazado 19" d="M654.287,170.194h.326v-3.829h-.326Zm0-4.384h.326V165.1h-.326Z" transform="translate(-595.148 -141.666)" fill="#19456E"/>
              <path id="Trazado_20" data-name="Trazado 20" d="M657.919,171.3l-1.564-3.832h.351l1.413,3.477,1.417-3.477h.326l-1.556,3.832Z" transform="translate(-596.058 -142.768)" fill="#19456E"/>
              <path id="Trazado_21" data-name="Trazado 21" d="M664.391,170.194h.326v-3.829h-.326Zm0-4.384h.326V165.1h-.326Z" transform="translate(-599.771 -141.666)" fill="#19456E"/>
              <path id="Trazado_22" data-name="Trazado 22" d="M668.978,167.745H668.2a.784.784,0,0,0-.563.2.768.768,0,0,0-.223.545V171.3h-.326v-3.833h.261l.03.386a.941.941,0,0,1,.355-.285,1.152,1.152,0,0,1,.5-.1h.747Z" transform="translate(-600.985 -142.768)" fill="#19456E"/>
              <path id="Trazado_23" data-name="Trazado 23" d="M678.7,170.118v.11a1.011,1.011,0,0,1-1.076,1.068h-.845a1.054,1.054,0,0,1-.776-.294,1.04,1.04,0,0,1-.3-.774v-1.693a1.034,1.034,0,0,1,.3-.777,1.056,1.056,0,0,1,.776-.294h.845a1.056,1.056,0,0,1,.782.294,1.043,1.043,0,0,1,.294.777v.919h-2.668v.78a.732.732,0,0,0,.785.781h.777a.725.725,0,0,0,.778-.781v-.116Zm-2.668-.928h2.34v-.664a.763.763,0,0,0-.209-.569.774.774,0,0,0-.568-.212h-.777a.776.776,0,0,0-.571.212.76.76,0,0,0-.214.569Z" transform="translate(-604.913 -142.768)" fill="#19456E"/>
              <rect id="Rect치ngulo_17" data-name="Rect치ngulo 17" width="0.326" height="5.452" transform="translate(74.864 23.076)" fill="#19456E"/>
              <path id="Trazado_24" data-name="Trazado 24" d="M692.5,171.3l-.036-.325a.931.931,0,0,1-.764.325h-.947a.974.974,0,0,1-.715-.27.957.957,0,0,1-.272-.71v-.141a.957.957,0,0,1,.272-.71.972.972,0,0,1,.715-.27h.947a.955.955,0,0,1,.733.288V168.44a.65.65,0,0,0-.695-.692h-.823a.651.651,0,0,0-.7.692v.208h-.326v-.2a.949.949,0,0,1,.271-.71.963.963,0,0,1,.715-.269h.9a.962.962,0,0,1,.714.269.945.945,0,0,1,.271.71v2.85Zm-.762-.282a.646.646,0,0,0,.695-.661v-.236a.7.7,0,0,0-.2-.484.691.691,0,0,0-.5-.18h-.957a.685.685,0,0,0-.506.19.671.671,0,0,0-.192.5v.175a.678.678,0,0,0,.192.505.685.685,0,0,0,.506.187Z" transform="translate(-611.339 -142.771)" fill="#19456E"/>
              <path id="Trazado_25" data-name="Trazado 25" d="M700.322,171.7a1.047,1.047,0,0,1-.293.777,1.064,1.064,0,0,1-.782.29H698.4a1.064,1.064,0,0,1-.78-.29,1.042,1.042,0,0,1-.293-.777v-.11h.326v.119a.737.737,0,0,0,.787.781h.777a.736.736,0,0,0,.777-.781v-.747a1.028,1.028,0,0,1-.816.334H698.4a1.013,1.013,0,0,1-1.073-1.068v-1.693a1.042,1.042,0,0,1,.293-.777,1.053,1.053,0,0,1,.78-.29h.779a1.136,1.136,0,0,1,.49.1.957.957,0,0,1,.355.279l.038-.376h.258Zm-2.668-1.466a.728.728,0,0,0,.787.781h.777a.761.761,0,0,0,.551-.2.746.746,0,0,0,.226-.545v-1.745a.728.728,0,0,0-.777-.781h-.777a.779.779,0,0,0-.576.212.759.759,0,0,0-.211.569Z" transform="translate(-614.56 -142.771)" fill="#19456E"/>
              <path id="Trazado_26" data-name="Trazado 26" d="M705.357,167.47v2.767a.728.728,0,0,0,.785.781h.779a.761.761,0,0,0,.565-.211.774.774,0,0,0,.213-.57V167.47h.326V171.3h-.259l-.03-.377a.991.991,0,0,1-.363.276,1.146,1.146,0,0,1-.49.1h-.778a1,1,0,0,1-1.074-1.068V167.47Z" transform="translate(-618.158 -142.771)" fill="#19456E"/>
              <path id="Trazado_27" data-name="Trazado 27" d="M715.093,171.3l-.038-.325a.93.93,0,0,1-.764.325h-.947a.976.976,0,0,1-.714-.27.953.953,0,0,1-.271-.71v-.141a.953.953,0,0,1,.271-.71.974.974,0,0,1,.714-.27h.947a.956.956,0,0,1,.733.288V168.44a.649.649,0,0,0-.695-.692h-.823a.648.648,0,0,0-.695.692v.208h-.326v-.2a.95.95,0,0,1,.269-.71.97.97,0,0,1,.717-.269h.9a.964.964,0,0,1,.715.269.95.95,0,0,1,.271.71v2.85Zm-.764-.282a.646.646,0,0,0,.695-.661v-.236a.7.7,0,0,0-.2-.484.682.682,0,0,0-.5-.18h-.956a.692.692,0,0,0-.508.19.683.683,0,0,0-.186.5v.175a.644.644,0,0,0,.695.692Z" transform="translate(-621.58 -142.771)" fill="#19456E"/>
            </g>
          </g>
        </g>
      </g>
    </g>
  </g>
</svg>
